<svg xmlns="http://www.w3.org/2000/svg" xmlns:xlink="http://www.w3.org/1999/xlink" width="500" zoomAndPan="magnify" viewBox="0 0 375 374.999991" height="500" preserveAspectRatio="xMidYMid meet" version="1.0"><defs><g/><clipPath id="606c87f4f4"><path d="M 80.078125 128.050781 L 206.828125 128.050781 L 206.828125 215.050781 L 80.078125 215.050781 Z M 80.078125 128.050781 " clip-rule="nonzero"/></clipPath></defs><g clip-path="url(#606c87f4f4)"><path fill="#000000" d="M 352.902344 210.457031 C 354.257812 210.457031 355.359375 211.558594 355.359375 212.914062 C 355.359375 214.273438 354.257812 215.375 352.902344 215.375 L 100.464844 215.375 C 98.035156 215.375 95.824219 214.378906 94.226562 212.78125 C 92.628906 211.183594 91.632812 208.972656 91.632812 206.542969 L 91.632812 175.488281 L 87.253906 175.488281 C 85.542969 175.488281 84.132812 175.039062 83.035156 174.292969 C 81.816406 173.472656 81.011719 172.308594 80.605469 170.984375 L 80.601562 170.988281 C 80.226562 169.761719 80.214844 168.40625 80.554688 167.097656 C 80.953125 165.53125 81.859375 164.003906 83.230469 162.820312 L 120.867188 130.378906 C 122.667969 128.824219 125.003906 128.050781 127.316406 128.050781 C 129.625 128.050781 131.960938 128.824219 133.761719 130.378906 L 159.054688 152.253906 C 160.078125 153.140625 160.191406 154.6875 159.304688 155.710938 C 158.421875 156.734375 156.871094 156.847656 155.847656 155.960938 L 130.554688 134.085938 C 129.691406 133.339844 128.515625 132.96875 127.316406 132.96875 C 126.117188 132.96875 124.9375 133.339844 124.074219 134.085938 L 86.4375 166.53125 C 85.84375 167.039062 85.460938 167.671875 85.296875 168.304688 C 85.183594 168.75 85.179688 169.179688 85.289062 169.546875 L 85.289062 169.554688 C 85.371094 169.820312 85.535156 170.054688 85.78125 170.222656 C 86.101562 170.4375 86.585938 170.570312 87.253906 170.570312 L 94.09375 170.570312 C 95.449219 170.570312 96.550781 171.671875 96.550781 173.027344 L 96.550781 206.542969 C 96.550781 207.617188 96.992188 208.597656 97.703125 209.304688 C 98.414062 210.015625 99.390625 210.457031 100.464844 210.457031 Z M 352.902344 210.457031 " fill-opacity="1" fill-rule="nonzero"/></g><g fill="#419c64" fill-opacity="1"><g transform="translate(108.727416, 198.221692)"><g><path d="M 15.609375 0.40625 C 12.972656 0.40625 10.648438 -0.140625 8.640625 -1.234375 C 6.640625 -2.328125 5.070312 -3.96875 3.9375 -6.15625 C 2.8125 -8.351562 2.25 -11.0625 2.25 -14.28125 C 2.25 -17.5 2.8125 -20.203125 3.9375 -22.390625 C 5.070312 -24.585938 6.640625 -26.234375 8.640625 -27.328125 C 10.648438 -28.421875 12.972656 -28.96875 15.609375 -28.96875 C 18.359375 -28.96875 20.691406 -28.429688 22.609375 -27.359375 C 24.523438 -26.285156 25.894531 -24.644531 26.71875 -22.4375 L 22.59375 -19.921875 L 22.109375 -19.9375 C 21.492188 -21.425781 20.660156 -22.492188 19.609375 -23.140625 C 18.566406 -23.785156 17.234375 -24.109375 15.609375 -24.109375 C 13.234375 -24.109375 11.378906 -23.320312 10.046875 -21.75 C 8.722656 -20.175781 8.0625 -17.6875 8.0625 -14.28125 C 8.0625 -10.882812 8.722656 -8.398438 10.046875 -6.828125 C 11.378906 -5.253906 13.234375 -4.46875 15.609375 -4.46875 C 19.316406 -4.46875 21.585938 -6.273438 22.421875 -9.890625 L 22.90625 -9.890625 L 27.078125 -7.71875 C 26.296875 -5.007812 24.957031 -2.976562 23.0625 -1.625 C 21.175781 -0.269531 18.691406 0.40625 15.609375 0.40625 Z M 15.609375 0.40625 "/></g></g></g><g fill="#000000" fill-opacity="1"><g transform="translate(134.860227, 198.221692)"><g><path d="M 8.40625 0.40625 C 7.019531 0.40625 5.816406 0.15625 4.796875 -0.34375 C 3.785156 -0.851562 3.003906 -1.597656 2.453125 -2.578125 C 1.910156 -3.566406 1.640625 -4.753906 1.640625 -6.140625 C 1.640625 -7.410156 1.910156 -8.476562 2.453125 -9.34375 C 3.003906 -10.207031 3.851562 -10.914062 5 -11.46875 C 6.144531 -12.03125 7.644531 -12.457031 9.5 -12.75 C 10.78125 -12.957031 11.753906 -13.1875 12.421875 -13.4375 C 13.097656 -13.6875 13.550781 -13.96875 13.78125 -14.28125 C 14.019531 -14.59375 14.140625 -14.988281 14.140625 -15.46875 C 14.140625 -16.15625 13.898438 -16.679688 13.421875 -17.046875 C 12.941406 -17.410156 12.140625 -17.59375 11.015625 -17.59375 C 9.816406 -17.59375 8.675781 -17.328125 7.59375 -16.796875 C 6.519531 -16.265625 5.582031 -15.5625 4.78125 -14.6875 L 4.390625 -14.6875 L 2.125 -18.109375 C 3.21875 -19.316406 4.550781 -20.257812 6.125 -20.9375 C 7.707031 -21.613281 9.429688 -21.953125 11.296875 -21.953125 C 14.140625 -21.953125 16.195312 -21.347656 17.46875 -20.140625 C 18.75 -18.929688 19.390625 -17.210938 19.390625 -14.984375 L 19.390625 -5.625 C 19.390625 -4.664062 19.816406 -4.1875 20.671875 -4.1875 C 20.992188 -4.1875 21.3125 -4.242188 21.625 -4.359375 L 21.890625 -4.28125 L 22.28125 -0.515625 C 21.988281 -0.316406 21.570312 -0.15625 21.03125 -0.03125 C 20.5 0.09375 19.914062 0.15625 19.28125 0.15625 C 17.988281 0.15625 16.976562 -0.0859375 16.25 -0.578125 C 15.53125 -1.078125 15.015625 -1.851562 14.703125 -2.90625 L 14.296875 -2.953125 C 13.242188 -0.710938 11.28125 0.40625 8.40625 0.40625 Z M 10.125 -3.640625 C 11.375 -3.640625 12.367188 -4.054688 13.109375 -4.890625 C 13.859375 -5.734375 14.234375 -6.90625 14.234375 -8.40625 L 14.234375 -10.59375 L 13.875 -10.671875 C 13.539062 -10.410156 13.109375 -10.191406 12.578125 -10.015625 C 12.054688 -9.835938 11.300781 -9.664062 10.3125 -9.5 C 9.144531 -9.300781 8.300781 -8.960938 7.78125 -8.484375 C 7.269531 -8.015625 7.015625 -7.34375 7.015625 -6.46875 C 7.015625 -5.539062 7.285156 -4.835938 7.828125 -4.359375 C 8.378906 -3.878906 9.144531 -3.640625 10.125 -3.640625 Z M 10.125 -3.640625 "/></g></g></g><g fill="#000000" fill-opacity="1"><g transform="translate(155.692858, 198.221692)"><g><path d="M 10.078125 0.40625 C 8.609375 0.40625 7.257812 0.234375 6.03125 -0.109375 C 4.8125 -0.453125 3.769531 -0.925781 2.90625 -1.53125 C 2.039062 -2.132812 1.398438 -2.828125 0.984375 -3.609375 L 3.984375 -6.859375 L 4.390625 -6.859375 C 5.109375 -5.890625 5.957031 -5.164062 6.9375 -4.6875 C 7.914062 -4.207031 8.976562 -3.96875 10.125 -3.96875 C 11.175781 -3.96875 11.96875 -4.15625 12.5 -4.53125 C 13.03125 -4.90625 13.296875 -5.445312 13.296875 -6.15625 C 13.296875 -6.695312 13.101562 -7.15625 12.71875 -7.53125 C 12.34375 -7.90625 11.722656 -8.195312 10.859375 -8.40625 L 8.015625 -9.078125 C 5.878906 -9.585938 4.316406 -10.363281 3.328125 -11.40625 C 2.347656 -12.457031 1.859375 -13.789062 1.859375 -15.40625 C 1.859375 -16.75 2.195312 -17.914062 2.875 -18.90625 C 3.5625 -19.894531 4.523438 -20.648438 5.765625 -21.171875 C 7.015625 -21.691406 8.46875 -21.953125 10.125 -21.953125 C 12.0625 -21.953125 13.664062 -21.671875 14.9375 -21.109375 C 16.21875 -20.554688 17.21875 -19.8125 17.9375 -18.875 L 15.046875 -15.75 L 14.65625 -15.75 C 14.050781 -16.425781 13.375 -16.921875 12.625 -17.234375 C 11.875 -17.546875 11.039062 -17.703125 10.125 -17.703125 C 7.988281 -17.703125 6.921875 -17.035156 6.921875 -15.703125 C 6.921875 -15.140625 7.117188 -14.679688 7.515625 -14.328125 C 7.910156 -13.984375 8.609375 -13.703125 9.609375 -13.484375 L 12.265625 -12.890625 C 14.453125 -12.421875 16.050781 -11.664062 17.0625 -10.625 C 18.070312 -9.59375 18.578125 -8.207031 18.578125 -6.46875 C 18.578125 -5.101562 18.238281 -3.898438 17.5625 -2.859375 C 16.882812 -1.816406 15.90625 -1.007812 14.625 -0.4375 C 13.351562 0.125 11.835938 0.40625 10.078125 0.40625 Z M 10.078125 0.40625 "/></g></g></g><g fill="#000000" fill-opacity="1"><g transform="translate(173.674206, 198.221692)"><g><path d="M 8.40625 0.40625 C 7.019531 0.40625 5.816406 0.15625 4.796875 -0.34375 C 3.785156 -0.851562 3.003906 -1.597656 2.453125 -2.578125 C 1.910156 -3.566406 1.640625 -4.753906 1.640625 -6.140625 C 1.640625 -7.410156 1.910156 -8.476562 2.453125 -9.34375 C 3.003906 -10.207031 3.851562 -10.914062 5 -11.46875 C 6.144531 -12.03125 7.644531 -12.457031 9.5 -12.75 C 10.78125 -12.957031 11.753906 -13.1875 12.421875 -13.4375 C 13.097656 -13.6875 13.550781 -13.96875 13.78125 -14.28125 C 14.019531 -14.59375 14.140625 -14.988281 14.140625 -15.46875 C 14.140625 -16.15625 13.898438 -16.679688 13.421875 -17.046875 C 12.941406 -17.410156 12.140625 -17.59375 11.015625 -17.59375 C 9.816406 -17.59375 8.675781 -17.328125 7.59375 -16.796875 C 6.519531 -16.265625 5.582031 -15.5625 4.78125 -14.6875 L 4.390625 -14.6875 L 2.125 -18.109375 C 3.21875 -19.316406 4.550781 -20.257812 6.125 -20.9375 C 7.707031 -21.613281 9.429688 -21.953125 11.296875 -21.953125 C 14.140625 -21.953125 16.195312 -21.347656 17.46875 -20.140625 C 18.75 -18.929688 19.390625 -17.210938 19.390625 -14.984375 L 19.390625 -5.625 C 19.390625 -4.664062 19.816406 -4.1875 20.671875 -4.1875 C 20.992188 -4.1875 21.3125 -4.242188 21.625 -4.359375 L 21.890625 -4.28125 L 22.28125 -0.515625 C 21.988281 -0.316406 21.570312 -0.15625 21.03125 -0.03125 C 20.5 0.09375 19.914062 0.15625 19.28125 0.15625 C 17.988281 0.15625 16.976562 -0.0859375 16.25 -0.578125 C 15.53125 -1.078125 15.015625 -1.851562 14.703125 -2.90625 L 14.296875 -2.953125 C 13.242188 -0.710938 11.28125 0.40625 8.40625 0.40625 Z M 10.125 -3.640625 C 11.375 -3.640625 12.367188 -4.054688 13.109375 -4.890625 C 13.859375 -5.734375 14.234375 -6.90625 14.234375 -8.40625 L 14.234375 -10.59375 L 13.875 -10.671875 C 13.539062 -10.410156 13.109375 -10.191406 12.578125 -10.015625 C 12.054688 -9.835938 11.300781 -9.664062 10.3125 -9.5 C 9.144531 -9.300781 8.300781 -8.960938 7.78125 -8.484375 C 7.269531 -8.015625 7.015625 -7.34375 7.015625 -6.46875 C 7.015625 -5.539062 7.285156 -4.835938 7.828125 -4.359375 C 8.378906 -3.878906 9.144531 -3.640625 10.125 -3.640625 Z M 10.125 -3.640625 "/></g></g></g><g fill="#419c64" fill-opacity="1"><g transform="translate(194.50866, 198.221692)"><g><path d="M 8.890625 0 L 3.71875 0 L 3.71875 -28.5625 L 11.09375 -28.5625 L 18.328125 -7.5625 L 18.734375 -7.5625 L 25.921875 -28.5625 L 33.125 -28.5625 L 33.125 0 L 27.78125 0 L 27.78125 -18.875 L 27.28125 -18.953125 L 20.6875 0 L 15.984375 0 L 9.375 -18.953125 L 8.890625 -18.875 Z M 8.890625 0 "/></g></g></g><g fill="#000000" fill-opacity="1"><g transform="translate(229.489127, 198.221692)"><g><path d="M 21.296875 -9.546875 L 7.4375 -9.546875 C 7.59375 -7.671875 8.125 -6.304688 9.03125 -5.453125 C 9.945312 -4.609375 11.195312 -4.1875 12.78125 -4.1875 C 14.007812 -4.1875 15.007812 -4.414062 15.78125 -4.875 C 16.550781 -5.332031 17.171875 -6.03125 17.640625 -6.96875 L 18.046875 -6.96875 L 21.640625 -4.671875 C 20.941406 -3.160156 19.878906 -1.9375 18.453125 -1 C 17.035156 -0.0625 15.144531 0.40625 12.78125 0.40625 C 10.550781 0.40625 8.625 -0.015625 7 -0.859375 C 5.382812 -1.703125 4.132812 -2.960938 3.25 -4.640625 C 2.375 -6.316406 1.9375 -8.359375 1.9375 -10.765625 C 1.9375 -13.210938 2.394531 -15.273438 3.3125 -16.953125 C 4.238281 -18.628906 5.488281 -19.878906 7.0625 -20.703125 C 8.644531 -21.535156 10.421875 -21.953125 12.390625 -21.953125 C 15.429688 -21.953125 17.757812 -21.144531 19.375 -19.53125 C 21 -17.914062 21.8125 -15.546875 21.8125 -12.421875 C 21.8125 -11.285156 21.773438 -10.40625 21.703125 -9.78125 Z M 16.640625 -13.046875 C 16.585938 -14.691406 16.207031 -15.882812 15.5 -16.625 C 14.789062 -17.375 13.753906 -17.75 12.390625 -17.75 C 9.648438 -17.75 8.039062 -16.179688 7.5625 -13.046875 Z M 16.640625 -13.046875 "/></g></g></g><g fill="#000000" fill-opacity="1"><g transform="translate(251.024814, 198.221692)"><g><path d="M 21.296875 -9.546875 L 7.4375 -9.546875 C 7.59375 -7.671875 8.125 -6.304688 9.03125 -5.453125 C 9.945312 -4.609375 11.195312 -4.1875 12.78125 -4.1875 C 14.007812 -4.1875 15.007812 -4.414062 15.78125 -4.875 C 16.550781 -5.332031 17.171875 -6.03125 17.640625 -6.96875 L 18.046875 -6.96875 L 21.640625 -4.671875 C 20.941406 -3.160156 19.878906 -1.9375 18.453125 -1 C 17.035156 -0.0625 15.144531 0.40625 12.78125 0.40625 C 10.550781 0.40625 8.625 -0.015625 7 -0.859375 C 5.382812 -1.703125 4.132812 -2.960938 3.25 -4.640625 C 2.375 -6.316406 1.9375 -8.359375 1.9375 -10.765625 C 1.9375 -13.210938 2.394531 -15.273438 3.3125 -16.953125 C 4.238281 -18.628906 5.488281 -19.878906 7.0625 -20.703125 C 8.644531 -21.535156 10.421875 -21.953125 12.390625 -21.953125 C 15.429688 -21.953125 17.757812 -21.144531 19.375 -19.53125 C 21 -17.914062 21.8125 -15.546875 21.8125 -12.421875 C 21.8125 -11.285156 21.773438 -10.40625 21.703125 -9.78125 Z M 16.640625 -13.046875 C 16.585938 -14.691406 16.207031 -15.882812 15.5 -16.625 C 14.789062 -17.375 13.753906 -17.75 12.390625 -17.75 C 9.648438 -17.75 8.039062 -16.179688 7.5625 -13.046875 Z M 16.640625 -13.046875 "/></g></g></g><g fill="#000000" fill-opacity="1"><g transform="translate(272.560502, 198.221692)"><g><path d="M 14.859375 -5.140625 L 16.265625 -1.140625 C 15.679688 -0.648438 14.945312 -0.269531 14.0625 0 C 13.175781 0.269531 12.175781 0.40625 11.0625 0.40625 C 8.726562 0.40625 6.953125 -0.226562 5.734375 -1.5 C 4.523438 -2.769531 3.921875 -4.613281 3.921875 -7.03125 L 3.921875 -17.265625 L 0.640625 -17.265625 L 0.640625 -21.5625 L 3.921875 -21.5625 L 3.921875 -25.765625 L 9.34375 -26.640625 L 9.34375 -21.5625 L 15.453125 -21.5625 L 15.453125 -17.265625 L 9.34375 -17.265625 L 9.34375 -7.421875 C 9.34375 -6.359375 9.5625 -5.582031 10 -5.09375 C 10.445312 -4.601562 11.09375 -4.359375 11.9375 -4.359375 C 12.894531 -4.359375 13.734375 -4.617188 14.453125 -5.140625 Z M 14.859375 -5.140625 "/></g></g></g><g fill="#419c64" fill-opacity="1"><g transform="translate(214.49999, 214.960723)"><g><path d="M 3.359375 -5.875 L 2.640625 -5.875 L 2.640625 -1.203125 L 3.359375 -1.203125 L 3.359375 0 L 0.484375 0 L 0.484375 -1.203125 L 1.21875 -1.203125 L 1.21875 -5.875 L 0.484375 -5.875 L 0.484375 -7.078125 L 3.359375 -7.078125 Z M 3.359375 -5.875 "/></g></g></g><g fill="#419c64" fill-opacity="1"><g transform="translate(220.340276, 214.960723)"><g><path d="M 2.34375 -7.078125 L 4.109375 -2.390625 L 5.890625 -7.078125 L 7.375 -7.078125 L 7.75 0 L 6.3125 0 L 6.125 -3.734375 L 4.703125 0 L 3.53125 0 L 2.109375 -3.734375 L 1.921875 0 L 0.5 0 L 0.875 -7.078125 Z M 2.34375 -7.078125 "/></g></g></g><g fill="#419c64" fill-opacity="1"><g transform="translate(230.554527, 214.960723)"><g><path d="M 3.578125 0.09375 C 3.109375 0.09375 2.679688 0.0351562 2.296875 -0.078125 C 1.910156 -0.191406 1.582031 -0.390625 1.3125 -0.671875 C 1.039062 -0.960938 0.828125 -1.335938 0.671875 -1.796875 C 0.515625 -2.265625 0.4375 -2.84375 0.4375 -3.53125 C 0.4375 -4.226562 0.515625 -4.804688 0.671875 -5.265625 C 0.828125 -5.734375 1.039062 -6.109375 1.3125 -6.390625 C 1.582031 -6.679688 1.910156 -6.882812 2.296875 -7 C 2.679688 -7.113281 3.109375 -7.171875 3.578125 -7.171875 C 4.046875 -7.171875 4.472656 -7.113281 4.859375 -7 C 5.253906 -6.882812 5.585938 -6.679688 5.859375 -6.390625 C 6.128906 -6.109375 6.335938 -5.734375 6.484375 -5.265625 C 6.640625 -4.804688 6.71875 -4.226562 6.71875 -3.53125 C 6.71875 -2.84375 6.640625 -2.265625 6.484375 -1.796875 C 6.335938 -1.335938 6.128906 -0.960938 5.859375 -0.671875 C 5.585938 -0.390625 5.253906 -0.191406 4.859375 -0.078125 C 4.472656 0.0351562 4.046875 0.09375 3.578125 0.09375 Z M 3.578125 -1.109375 C 3.835938 -1.109375 4.070312 -1.144531 4.28125 -1.21875 C 4.488281 -1.289062 4.671875 -1.414062 4.828125 -1.59375 C 4.984375 -1.78125 5.097656 -2.03125 5.171875 -2.34375 C 5.253906 -2.664062 5.296875 -3.0625 5.296875 -3.53125 C 5.296875 -4.007812 5.253906 -4.40625 5.171875 -4.71875 C 5.097656 -5.039062 4.984375 -5.289062 4.828125 -5.46875 C 4.671875 -5.65625 4.488281 -5.785156 4.28125 -5.859375 C 4.070312 -5.929688 3.835938 -5.96875 3.578125 -5.96875 C 3.316406 -5.96875 3.082031 -5.929688 2.875 -5.859375 C 2.664062 -5.785156 2.484375 -5.65625 2.328125 -5.46875 C 2.179688 -5.289062 2.066406 -5.039062 1.984375 -4.71875 C 1.910156 -4.40625 1.875 -4.007812 1.875 -3.53125 C 1.875 -3.0625 1.910156 -2.664062 1.984375 -2.34375 C 2.066406 -2.03125 2.179688 -1.78125 2.328125 -1.59375 C 2.484375 -1.414062 2.664062 -1.289062 2.875 -1.21875 C 3.082031 -1.144531 3.316406 -1.109375 3.578125 -1.109375 Z M 3.578125 -1.109375 "/></g></g></g><g fill="#419c64" fill-opacity="1"><g transform="translate(239.698011, 214.960723)"><g><path d="M 5.1875 -7.078125 L 6.71875 -7.078125 L 4.03125 0 L 2.859375 0 L 0.171875 -7.078125 L 1.703125 -7.078125 L 3.4375 -2.4375 Z M 5.1875 -7.078125 "/></g></g></g><g fill="#419c64" fill-opacity="1"><g transform="translate(248.558655, 214.960723)"><g><path d="M 2.015625 -2.9375 L 2.015625 -1.203125 L 5.296875 -1.203125 L 5.296875 0 L 0.59375 0 L 0.59375 -7.078125 L 5.203125 -7.078125 L 5.203125 -5.875 L 2.015625 -5.875 L 2.015625 -4.140625 L 5.046875 -4.140625 L 5.046875 -2.9375 Z M 2.015625 -2.9375 "/></g></g></g><g fill="#419c64" fill-opacity="1"><g transform="translate(256.237423, 214.960723)"><g><path d="M 3.359375 -5.875 L 2.640625 -5.875 L 2.640625 -1.203125 L 3.359375 -1.203125 L 3.359375 0 L 0.484375 0 L 0.484375 -1.203125 L 1.21875 -1.203125 L 1.21875 -5.875 L 0.484375 -5.875 L 0.484375 -7.078125 L 3.359375 -7.078125 Z M 3.359375 -5.875 "/></g></g></g><g fill="#419c64" fill-opacity="1"><g transform="translate(262.077709, 214.960723)"><g><path d="M 5.65625 -2.0625 C 5.65625 -1.65625 5.585938 -1.3125 5.453125 -1.03125 C 5.316406 -0.75 5.125 -0.523438 4.875 -0.359375 C 4.632812 -0.191406 4.351562 -0.0703125 4.03125 0 C 3.707031 0.0625 3.363281 0.09375 3 0.09375 C 2.5 0.09375 2.023438 0.03125 1.578125 -0.09375 C 1.128906 -0.226562 0.734375 -0.394531 0.390625 -0.59375 L 0.953125 -1.734375 C 1.140625 -1.609375 1.3125 -1.503906 1.46875 -1.421875 C 1.625 -1.335938 1.78125 -1.269531 1.9375 -1.21875 C 2.101562 -1.175781 2.269531 -1.144531 2.4375 -1.125 C 2.601562 -1.113281 2.789062 -1.109375 3 -1.109375 C 3.351562 -1.109375 3.644531 -1.171875 3.875 -1.296875 C 4.113281 -1.429688 4.234375 -1.671875 4.234375 -2.015625 C 4.234375 -2.210938 4.179688 -2.363281 4.078125 -2.46875 C 3.972656 -2.582031 3.832031 -2.671875 3.65625 -2.734375 C 3.488281 -2.804688 3.296875 -2.867188 3.078125 -2.921875 C 2.859375 -2.972656 2.632812 -3.023438 2.40625 -3.078125 C 2.175781 -3.140625 1.953125 -3.21875 1.734375 -3.3125 C 1.515625 -3.40625 1.316406 -3.535156 1.140625 -3.703125 C 0.972656 -3.867188 0.835938 -4.078125 0.734375 -4.328125 C 0.628906 -4.585938 0.578125 -4.90625 0.578125 -5.28125 C 0.578125 -5.601562 0.640625 -5.882812 0.765625 -6.125 C 0.890625 -6.363281 1.0625 -6.5625 1.28125 -6.71875 C 1.507812 -6.875 1.773438 -6.988281 2.078125 -7.0625 C 2.378906 -7.132812 2.703125 -7.171875 3.046875 -7.171875 C 3.546875 -7.171875 4 -7.117188 4.40625 -7.015625 C 4.8125 -6.910156 5.175781 -6.78125 5.5 -6.625 L 5.03125 -5.484375 C 4.78125 -5.617188 4.488281 -5.734375 4.15625 -5.828125 C 3.832031 -5.921875 3.460938 -5.96875 3.046875 -5.96875 C 2.742188 -5.96875 2.492188 -5.910156 2.296875 -5.796875 C 2.097656 -5.679688 2 -5.507812 2 -5.28125 C 2 -5 2.085938 -4.785156 2.265625 -4.640625 C 2.453125 -4.503906 2.679688 -4.398438 2.953125 -4.328125 C 3.222656 -4.253906 3.515625 -4.1875 3.828125 -4.125 C 4.148438 -4.0625 4.441406 -3.957031 4.703125 -3.8125 C 4.972656 -3.664062 5.195312 -3.457031 5.375 -3.1875 C 5.5625 -2.925781 5.65625 -2.550781 5.65625 -2.0625 Z M 5.65625 -2.0625 "/></g></g></g></svg>